<?xml version="1.0" encoding="UTF-8"?>
<svg width="48px" height="51px" viewBox="0 0 48 51" version="1.1" xmlns="http://www.w3.org/2000/svg" xmlns:xlink="http://www.w3.org/1999/xlink">
    <!-- Generator: Sketch 53.2 (72643) - https://sketchapp.com -->
    <title>app p unclk</title>
    <desc>Created with Sketch.</desc>
    <defs>
        <filter x="-15.0%" y="-56.2%" width="130.0%" height="212.5%" filterUnits="objectBoundingBox" id="filter-1">
            <feGaussianBlur stdDeviation="1.5" in="SourceGraphic"></feGaussianBlur>
        </filter>
    </defs>
    <g id="app-p-unclk" stroke="none" stroke-width="1" fill="none" fill-rule="evenodd">
        <g id="Application-Icon-Copy-2" transform="translate(7.215190, 0.000000)">
            <g id="Group-9-Copy">
                <g id="Group-6" transform="translate(-0.000000, 0.000000)">
                    <g id="Group" transform="translate(0.000000, 0.000000)">
                        <polyline id="Fill-1559" fill="#E26237" points="12.0917085 17.6171429 4.24653061 22.3102041 4.27349271 22.2946939 12.1186706 17.6016327 12.0917085 17.6171429"></polyline>
                        <polyline id="Fill-1560" fill="#E26237" points="8.13462391 7.64979592 0.289446064 12.3436735 0.309271137 12.3330612 8.15444898 7.63918367 8.13462391 7.64979592"></polyline>
                        <g id="dark" transform="translate(4.885294, 7.329388)" fill="#9E9E9E">
                            <path d="M16.2545773,21.4763265 L8.40860641,26.1693878 C8.30868805,26.2297959 8.22621574,26.3057143 8.19766764,26.4012245 C8.10805831,26.7097959 7.32695044,29.1432653 7.28571429,29.2714286 L15.1316851,24.5783673 C15.1729213,24.4502041 15.9532362,22.0159184 16.0436385,21.7073469 C16.0713936,21.6126531 16.1538659,21.5359184 16.2545773,21.4763265" id="Fill-1561"></path>
                            <path d="M22.433656,22.0093878 L22.7389621,21.8265306 C23.1600466,21.575102 23.540688,21.2534694 23.8745423,20.8673469 L16.0293644,25.5612245 C15.7319883,25.9040816 15.3933761,26.1873469 15.0270087,26.424898 L14.5900641,26.6861224 C14.550414,26.9171429 14.5297959,27.1914286 14.5900641,27.3938776 C14.7169446,27.8142857 15.6899592,31.2004082 15.7407114,31.3783673 C15.7375394,31.3930612 15.6875802,31.6077551 15.5083615,31.7155102 L23.3535394,27.022449 C23.533551,26.9146939 23.5827172,26.7 23.5858892,26.6853061 C23.535137,26.5065306 22.5621224,23.1212245 22.435242,22.7 C22.3765598,22.5032653 22.3955918,22.2371429 22.433656,22.0093878" id="Fill-1565"></path>
                            <path d="M28.4977493,20.9359184 C28.3787988,20.7906122 26.1084315,18.0379592 25.8229504,17.6991837 C25.6865539,17.5408163 25.5485714,17.224898 25.439137,16.9342857 L17.5939592,21.6281633 C17.7033936,21.9179592 17.8413761,22.2338776 17.9777726,22.3930612 C18.2632536,22.7310204 20.532828,25.4836735 20.6525714,25.6289796 C20.6605015,25.6534694 20.816723,26.1163265 20.6771545,26.4665306 C20.536793,26.8191837 20.3631254,27.26 20.3544023,27.2828571 C20.3448863,27.3065306 20.1696327,27.7457143 20.0300641,28.0983673 C19.979312,28.224898 19.9047697,28.3008163 19.8294344,28.3457143 L27.6754052,23.6526531 C27.7507405,23.6077551 27.8252828,23.5318367 27.875242,23.4053061 C28.0156035,23.0526531 28.1908571,22.6126531 28.1995802,22.5897959 C28.2090962,22.5661224 28.3827638,22.1261224 28.5223324,21.7734694 C28.6619009,21.422449 28.5064723,20.9595918 28.4977493,20.9359184" id="Fill-1567"></path>
                            <path d="M25.7222391,14.0902041 L17.8770612,18.7832653 C17.7866589,18.8371429 17.6994286,18.9342857 17.6240933,19.0330612 C17.7018076,19.9653061 17.6883265,20.8338776 17.5939592,21.6281633 L25.439137,16.9342857 C25.5335044,16.14 25.5469854,15.2722449 25.4692711,14.34 C25.5446064,14.2412245 25.6326297,14.1440816 25.7222391,14.0902041" id="Fill-1568"></path>
                            <path d="M28.3320117,12.1008163 C28.3232886,12.0665306 28.161516,11.42 28.0322566,10.9081633 C27.9037901,10.3938776 27.5842099,10.0395918 27.5667638,10.0208163 C27.4351254,9.97673469 24.9300292,9.14408163 24.619172,9.0477551 L24.5200466,9.00122449 C24.3796851,8.91714286 24.1972945,8.74979592 24.0347289,8.58244898 C23.6350554,7.60367347 23.1663907,6.64693878 22.6398367,5.73265306 L14.7946589,10.4257143 C15.3204198,11.3408163 15.7898776,12.297551 16.189551,13.2755102 L20.1117434,10.9293878 L16.189551,13.2755102 C16.3521166,13.4428571 16.5337143,13.6110204 16.6748688,13.6942857 L16.7732012,13.7408163 C17.0848513,13.8371429 19.5899475,14.6706122 19.721586,14.7138776 L23.6445714,12.3677551 L19.721586,14.7138776 C19.7382391,14.7326531 20.0586122,15.0869388 20.1870787,15.6012245 C20.3155452,16.1130612 20.4781108,16.7595918 20.4868338,16.7938776 C20.4947638,16.8281633 20.6557434,17.4730612 20.7842099,17.9873469 C20.9126764,18.5016327 20.7477318,18.7677551 20.7390087,18.7816327 L28.5841866,14.0885714 C28.5929096,14.0746939 28.7578542,13.8085714 28.6293878,13.2942857 C28.5009213,12.78 28.3407347,12.1342857 28.3320117,12.1008163 Z" id="Fill-1571"></path>
                            <path d="M23.8911953,2.5 L16.0460175,7.19306122 C15.9913003,7.30653061 14.9485015,9.46897959 14.812898,9.72938776 C14.7486647,9.85510204 14.7613528,10.1497959 14.7946589,10.4257143 L22.6398367,5.73265306 C22.6073236,5.45591837 22.5938426,5.16204082 22.6580758,5.03632653 C22.7944723,4.77591837 23.8364781,2.61346939 23.8911953,2.5" id="Fill-1572"></path>
                            <path d="M17.0356851,18.017551 C16.6827988,17.8763265 16.3314985,17.7008163 15.9849563,17.495102 C12.8930379,15.657551 10.1746239,11.3930612 9.66710204,7.35877551 C9.32690379,4.65265306 10.0596385,2.66816327 11.4640466,1.82816327 L3.6188688,6.52122449 C2.21366764,7.36204082 1.48093294,9.34571429 1.8219242,12.0518367 C2.32944606,16.0861224 5.04786006,20.3514286 8.13977843,22.1881633 C8.4863207,22.3946939 8.83682799,22.5702041 9.19050729,22.7114286 C10.5806414,23.2665306 11.7939359,23.2085714 12.7169913,22.6559184 L20.5629621,17.9628571 C19.6391137,18.5146939 18.4258192,18.5734694 17.0356851,18.017551" id="Fill-1563"></path>
                        </g>
                        <path d="M11.156758,9.04489796 C10.8379708,8.88897959 8.28846647,7.70204082 8.15444898,7.63918367 L0.309271137,12.3330612 C0.44328863,12.395102 2.992793,13.5828571 3.31078717,13.7379592 C3.46225073,13.8130612 3.66288047,13.7746939 3.8357551,13.715102 L11.6817259,9.02204082 C11.5088513,9.08163265 11.3074286,9.12 11.156758,9.04489796" id="Fill-1562" fill="#F3F2F2"></path>
                        <path d="M12.2542741,0.835918367 C12.236828,0.826938776 11.9220058,0.652244898 11.6706239,0.803265306 L3.82544606,5.49632653 C4.07682799,5.34612245 4.39085714,5.52 4.40830321,5.52979592 C4.52011662,5.68489796 6.64615743,8.63836735 6.90626239,9.00979592 L14.7522332,4.31673469 C14.4913353,3.94530612 12.3660875,0.991836735 12.2542741,0.835918367" id="Fill-1564" fill="#F3F2F2"></path>
                        <path d="M15.3342974,4.80571429 C15.1154286,4.6677551 14.8759417,4.49387755 14.7522332,4.31673469 L6.90626239,9.00979592 C7.03076385,9.18693878 7.27025073,9.36081633 7.48911953,9.49959184 C8.08149271,9.34204082 8.72620408,9.29142857 9.41690962,9.36326531 L17.2620875,4.66938776 C16.5713819,4.59836735 15.9274636,4.64897959 15.3342974,4.80571429" id="Fill-1566" fill="#F3F2F2"></path>
                        <path d="M21.224723,5.62938776 C21.1422507,5.21387755 20.4340991,1.87755102 20.396828,1.70122449 C20.3857259,1.68489796 20.1747872,1.36244898 19.860758,1.1755102 L19.7227755,1.10693878 C19.3349971,0.950204082 18.8504723,0.758367347 18.8250962,0.747755102 C18.7989271,0.737959184 18.3144023,0.543673469 17.9266239,0.386938776 C17.691102,0.293061224 17.5277434,0.343673469 17.4341691,0.4 L9.58899125,5.09306122 C9.6825656,5.03673469 9.8459242,4.98693878 10.0814461,5.08081633 C10.4692245,5.23755102 10.9537493,5.43102041 10.9791254,5.44163265 C11.0045015,5.45142857 11.4898192,5.64408163 11.8768047,5.8 L12.0147872,5.86857143 C12.3296093,6.05632653 12.5405481,6.37795918 12.5516501,6.39510204 C12.5889213,6.57061224 13.2962799,9.90693878 13.3787522,10.322449 C13.4176093,10.517551 13.5841399,10.8253061 13.7474985,11.0922449 L21.5926764,6.39918367 C21.4293178,6.1322449 21.2627872,5.8244898 21.224723,5.62938776" id="Fill-1569" fill="#F3F2F2"></path>
                        <path d="M23.7607464,8.1722449 L23.7607464,8.1722449 C23.0644898,7.50122449 22.3373061,6.90285714 21.5926764,6.39918367 L13.7474985,11.0922449 C14.4913353,11.5959184 15.219312,12.195102 15.9155685,12.8653061 C16.0971662,12.8946939 16.2906589,12.9044898 16.3953353,12.8416327 L24.2405131,8.14857143 C24.1358367,8.21142857 23.943137,8.20163265 23.7607464,8.1722449" id="Fill-1570" fill="#F3F2F2"></path>
                        <path d="M28.3665073,8.92163265 C28.029481,8.48571429 27.6083965,7.93795918 27.5861924,7.90857143 C27.5639883,7.88 27.1405248,7.33306122 26.8058776,6.89795918 C26.642519,6.68489796 26.4751953,6.55591837 26.3467289,6.48 C26.2103324,6.39836735 26.121516,6.37795918 26.116758,6.37632653 L18.2707872,11.0702041 C18.2755452,11.0710204 18.3643615,11.0922449 18.501551,11.1730612 C18.6300175,11.2497959 18.7965481,11.3787755 18.9599067,11.5910204 C19.2953469,12.0261224 19.7180175,12.5730612 19.7402216,12.602449 C19.7624257,12.6310204 20.1835102,13.1795918 20.5205364,13.6155102 C20.8559767,14.0522449 20.9273469,14.4987755 20.931312,14.522449 L28.7764898,9.82938776 C28.7725248,9.80571429 28.7011545,9.35918367 28.3665073,8.92163265" id="Fill-1573" fill="#F3F2F2"></path>
                        <path d="M6.70721866,19.3812245 C7.21474052,23.4155102 9.93315452,27.6808163 13.0250729,29.517551 C13.3716152,29.7240816 13.7221224,29.8995918 14.0758017,30.0408163 C17.5800816,31.4408163 19.9646414,28.9404082 19.4000233,24.4538776 C18.8925015,20.4212245 16.1717085,16.1542857 13.0813761,14.3167347 C12.7348338,14.1110204 12.3843265,13.9355102 12.0314402,13.7942857 C8.52557434,12.395102 6.14260058,14.8971429 6.70721866,19.3812245 M0.027755102,12.9216327 C0.0340991254,12.4620408 0.294997085,12.3387755 0.309271137,12.3330612 C0.44328863,12.395102 2.992793,13.5828571 3.31078717,13.7379592 C3.46225073,13.8130612 3.66288047,13.7746939 3.8357551,13.715102 C4.01814577,12.9706122 4.28300875,12.3077551 4.62082799,11.7355102 C4.58434985,11.4587755 4.52090962,11.1436735 4.41702624,10.9534694 C4.19736443,10.5493878 2.47179009,7.28163265 2.38059475,7.10938776 C2.37821574,7.08653061 2.3393586,6.65142857 2.59629155,6.4522449 C2.85084548,6.2522449 3.17280466,6.00163265 3.19025073,5.98857143 C3.20690379,5.9755102 3.52886297,5.72489796 3.78341691,5.52489796 C4.04034985,5.32571429 4.39006414,5.51918367 4.40830321,5.52979592 C4.52011662,5.68489796 6.64615743,8.63836735 6.90626239,9.00979592 C7.03076385,9.18693878 7.27025073,9.36081633 7.48911953,9.49959184 C8.08228571,9.34204082 8.72620408,9.29142857 9.41690962,9.36326531 C9.52713703,9.20326531 9.6294344,9.00326531 9.61912536,8.81795918 C9.6008863,8.43020408 9.49938192,5.33387755 9.4938309,5.17142857 C9.50413994,5.15918367 9.69604665,4.92734694 10.0814461,5.08081633 C10.4692245,5.23755102 10.9537493,5.43102041 10.9791254,5.44163265 C11.0045015,5.45142857 11.4898192,5.64408163 11.8768047,5.8 L12.0147872,5.86857143 C12.3296093,6.05632653 12.5405481,6.37795918 12.5516501,6.39510204 C12.5889213,6.57061224 13.2962799,9.90693878 13.3787522,10.322449 C13.4176093,10.517551 13.5841399,10.8253061 13.7474985,11.0922449 C14.4913353,11.5959184 15.219312,12.195102 15.9155685,12.8653061 C16.1201633,12.8987755 16.3390321,12.9061224 16.4294344,12.8155102 C16.6189621,12.6244898 18.1883149,11.1477551 18.2707872,11.0702041 C18.2755452,11.0710204 18.3643615,11.0922449 18.501551,11.1730612 C18.6300175,11.2497959 18.7965481,11.3787755 18.9599067,11.5910204 C19.2953469,12.0261224 19.7180175,12.5730612 19.7402216,12.602449 C19.7624257,12.6310204 20.1835102,13.1795918 20.5205364,13.6155102 C20.8559767,14.0522449 20.9273469,14.4987755 20.931312,14.522449 C20.8765948,14.6359184 19.8337959,16.7983673 19.6981924,17.0587755 C19.6339592,17.1844898 19.6466472,17.4791837 19.6799534,17.755102 C20.2057143,18.6702041 20.675172,19.6269388 21.0748455,20.604898 C21.2374111,20.7722449 21.4190087,20.9404082 21.5601633,21.0236735 L21.6584956,21.0702041 C21.9701458,21.1665306 24.475242,22 24.6068805,22.0432653 C24.6235335,22.0620408 24.9439067,22.4163265 25.0723732,22.9306122 C25.2008397,23.442449 25.3634052,24.0889796 25.3721283,24.1232653 C25.3800583,24.157551 25.5410379,24.802449 25.6695044,25.3167347 C25.7979708,25.8310204 25.6330262,26.0971429 25.6243032,26.1110204 C25.5029738,26.1093878 23.1985073,26.0840816 22.9082682,26.0693878 C22.7694927,26.0628571 22.6251662,26.2106122 22.5093878,26.362449 C22.586309,27.2946939 22.573621,28.1632653 22.4792536,28.957551 C22.588688,29.2473469 22.7266706,29.5632653 22.8630671,29.722449 C23.1485481,30.0604082 25.4181224,32.8130612 25.5378659,32.9583673 C25.5457959,32.9828571 25.7020175,33.4457143 25.562449,33.7959184 C25.4220875,34.1485714 25.2484198,34.5893878 25.2396968,34.6122449 C25.2301808,34.6359184 25.0549271,35.075102 24.9153586,35.4277551 C24.7757901,35.7787755 24.4506589,35.7395918 24.4340058,35.7379592 C24.3031603,35.6220408 21.8155102,33.4195918 21.5062391,33.1371429 L21.3952187,33.0555102 C21.2548571,32.9722449 21.0756385,32.9208163 20.9146589,32.8906122 C20.5022974,33.3673469 20.0185656,33.7453061 19.4753586,34.0155102 C19.4349155,34.2465306 19.4150904,34.5208163 19.4745656,34.7232653 C19.6022391,35.1436735 20.5752536,38.5297959 20.6260058,38.7077551 C20.6220408,38.7265306 20.5395685,39.0816327 20.1977843,39.1036735 C19.856,39.1281633 19.4269854,39.1591837 19.4039883,39.1608163 C19.3817843,39.162449 18.9535627,39.1942857 18.6117784,39.2179592 C18.4571429,39.2293878 18.3001283,39.1640816 18.1748338,39.0897959 C18.0249563,39.0008163 17.9258309,38.9028571 17.9202799,38.8979592 C17.8409796,38.7216327 16.331895,35.3730612 16.1495044,34.955102 C16.0630671,34.7583673 15.8465773,34.4995918 15.6427755,34.2832653 C15.2922682,34.195102 14.9330379,34.0759184 14.5650845,33.9289796 C14.1971312,33.7820408 13.8307638,33.6106122 13.4667755,33.4155102 C13.2994519,33.4816327 13.1265773,33.5836735 13.0829621,33.7306122 C12.9933528,34.0391837 12.2122449,36.4726531 12.1710087,36.6008163 C12.1606997,36.6040816 11.9537259,36.6636735 11.6484198,36.482449 L11.4906122,36.3706122 C11.1067988,36.0563265 10.6246531,35.6636735 10.599277,35.6432653 C10.5731079,35.6220408 10.0909621,35.2277551 9.70556268,34.9126531 C9.32254227,34.5983673 9.13777259,34.1363265 9.12746356,34.1118367 C9.13697959,33.9583673 9.31619825,31.0326531 9.34395335,30.6742857 C9.35822741,30.5020408 9.26148105,30.1812245 9.15680466,29.8914286 C8.4851312,29.1346939 7.84993586,28.3110204 7.26707872,27.4359184 C7.04662391,27.3044898 6.80475802,27.1885714 6.67629155,27.2114286 C6.41142857,27.2636735 4.2425656,27.604898 4.12837318,27.6228571 C4.11013411,27.6106122 3.76121283,27.3795918 3.51538192,26.875102 C3.26717201,26.3681633 2.95790087,25.7338776 2.94124781,25.7012245 C2.92538776,25.6677551 2.61453061,25.0326531 2.3663207,24.5273469 C2.1204898,24.0212245 2.17044898,23.6408163 2.17282799,23.6212245 C2.26719534,23.5616327 4.04669388,22.4253061 4.27349271,22.2946939 C4.3805481,22.2302041 4.45033236,21.997551 4.49553353,21.7722449 C4.17912536,20.8114286 3.93488047,19.8408163 3.77231487,18.875102 C3.60499125,18.6097959 3.40515452,18.3240816 3.25448397,18.2155102 C2.9380758,17.9853061 0.397294461,16.077551 0.263276968,15.9771429 C0.249795918,15.9542857 -0.00396501458,15.5191837 0.000793002916,15.0587755 C0.00713702624,14.597551 0.0142740525,14.0195918 0.0142740525,13.9893878 C0.0150670554,13.9583673 0.0229970845,13.3820408 0.027755102,12.9216327" id="Fill-1574" fill="#D8D8D8"></path>
                    </g>
                </g>
            </g>
        </g>
        <path d="M39,46.9999531 C39,49.2090797 32.2844791,51 24,51 C15.7158723,51 9,49.2090797 9,46.9999531 C9,44.7908265 15.7158723,43 24,43 C32.2844791,43 39,44.7908265 39,46.9999531 Z" id="Stroke-1-Copy-22" fill="#181C24" opacity="0.647064" filter="url(#filter-1)"></path>
    </g>
</svg>